HIERARCHY
ROOT hips
{
  OFFSET 4.514983404067499e-9 10.105397940993303 1.318478203070619
  CHANNELS 6 Xposition Yposition Zposition Yrotation Xrotation Zrotation
  JOINT spine
  {
    OFFSET -3.891297943093837e-9 0.5743022203102706 0
    CHANNELS 3 Yrotation Xrotation Zrotation
    JOINT chest
    {
      OFFSET 0 1.2550312016247926 0
      CHANNELS 3 Yrotation Xrotation Zrotation
      JOINT upperChest
      {
        OFFSET 0 1.2059856050120283 0
        CHANNELS 3 Yrotation Xrotation Zrotation
        JOINT neck
        {
          OFFSET 0 1.5290392449770056 0
          CHANNELS 3 Yrotation Xrotation Zrotation
          JOINT head
          {
            OFFSET 0 0.8186276690878121 0
            CHANNELS 3 Yrotation Xrotation Zrotation
            JOINT leftEye
            {
              OFFSET 0.4540883942785781 -0.2684596961258452 0.6133497327236779
              CHANNELS 3 Yrotation Xrotation Zrotation
              End Site
              {
                OFFSET 0.4540883942785781 -0.2684596961258452 0.6133497327236779
              }
            }
            JOINT rightEye
            {
              OFFSET -0.4540889229417456 -0.26846010916843954 0.6133525398671689
              CHANNELS 3 Yrotation Xrotation Zrotation
              End Site
              {
                OFFSET -0.4540889229417456 -0.26846010916843954 0.6133525398671689
              }
            }
          }
        }
        JOINT leftShoulder
        {
          OFFSET 1.1700010731725468 -0.4176065950681176 0
          CHANNELS 3 Yrotation Xrotation Zrotation
          JOINT leftUpperArm
          {
            OFFSET 1.1803911524554955 0 0
            CHANNELS 3 Yrotation Xrotation Zrotation
            JOINT leftLowerArm
            {
              OFFSET 2.4406171707858904 0 0
              CHANNELS 3 Yrotation Xrotation Zrotation
              JOINT leftHand
              {
                OFFSET 2.3832177068873874 0 0
                CHANNELS 3 Yrotation Xrotation Zrotation
                JOINT leftIndexProximal
                {
                  OFFSET 0.7310175006235151 0.08192774217833776 0.20404791572985242
                  CHANNELS 3 Yrotation Xrotation Zrotation
                  JOINT leftIndexIntermediate
                  {
                    OFFSET 0.3688845439429529 -0.010662034455094949 -0.014226011560394963
                    CHANNELS 3 Yrotation Xrotation Zrotation
                    JOINT leftIndexDistal
                    {
                      OFFSET 0.2271119941018298 -0.007897656478952575 -0.007580683836364496
                      CHANNELS 3 Yrotation Xrotation Zrotation
                      End Site
                      {
                        OFFSET 0.2271119941018298 -0.007897656478952575 -0.007580683836364496
                      }
                    }
                  }
                }
                JOINT leftLittleProximal
                {
                  OFFSET 0.678269929308182 0.08192620621401336 -0.323876516389586
                  CHANNELS 3 Yrotation Xrotation Zrotation
                  JOINT leftLittleIntermediate
                  {
                    OFFSET 0.34904545821382604 -0.0000017106393073174075 8.629360392919949e-9
                    CHANNELS 3 Yrotation Xrotation Zrotation
                    JOINT leftLittleDistal
                    {
                      OFFSET 0.2011060672849896 0.0031247840072243793 0.0038660318003989197
                      CHANNELS 3 Yrotation Xrotation Zrotation
                      End Site
                      {
                        OFFSET 0.2011060672849896 0.0031247840072243793 0.0038660318003989197
                      }
                    }
                  }
                }
                JOINT leftMiddleProximal
                {
                  OFFSET 0.7368181082522638 0.0819260272939426 0.02272335773438093
                  CHANNELS 3 Yrotation Xrotation Zrotation
                  JOINT leftMiddleIntermediate
                  {
                    OFFSET 0.41136739116025356 -0.0000015892429323649537 5.27860346960507e-8
                    CHANNELS 3 Yrotation Xrotation Zrotation
                    JOINT leftMiddleDistal
                    {
                      OFFSET 0.25378150303820757 -0.0000015332469289752737 1.3442958385345705e-8
                      CHANNELS 3 Yrotation Xrotation Zrotation
                      End Site
                      {
                        OFFSET 0.25378150303820757 -0.0000015332469289752737 1.3442958385345705e-8
                      }
                    }
                  }
                }
                JOINT leftRingProximal
                {
                  OFFSET 0.7284256823094712 0.08192611199801392 -0.1508405069143483
                  CHANNELS 3 Yrotation Xrotation Zrotation
                  JOINT leftRingIntermediate
                  {
                    OFFSET 0.381593741461262 -0.0000016975471202052006 6.592486757883709e-8
                    CHANNELS 3 Yrotation Xrotation Zrotation
                    JOINT leftRingDistal
                    {
                      OFFSET 0.22014536669820362 -0.0027420652959939673 -0.005037497035641991
                      CHANNELS 3 Yrotation Xrotation Zrotation
                      End Site
                      {
                        OFFSET 0.22014536669820362 -0.0027420652959939673 -0.005037497035641991
                      }
                    }
                  }
                }
                JOINT leftThumbProximal
                {
                  OFFSET 0.10842212958334652 -0.16573713992498873 -0.07779936144556289
                  CHANNELS 3 Yrotation Xrotation Zrotation
                  JOINT leftThumbIntermediate
                  {
                    OFFSET 0.40720553822379024 -0.01751267955631075 0.31852684427382305
                    CHANNELS 3 Yrotation Xrotation Zrotation
                    JOINT leftThumbDistal
                    {
                      OFFSET 0.23412859218032667 -0.01859690713588802 0.2146635043319005
                      CHANNELS 3 Yrotation Xrotation Zrotation
                      End Site
                      {
                        OFFSET 0.23412859218032667 -0.01859690713588802 0.2146635043319005
                      }
                    }
                  }
                }
              }
            }
          }
        }
        JOINT rightShoulder
        {
          OFFSET -1.1700037144859516 -0.41760703856471126 0
          CHANNELS 3 Yrotation Xrotation Zrotation
          JOINT rightUpperArm
          {
            OFFSET -1.1803910289368023 0 0
            CHANNELS 3 Yrotation Xrotation Zrotation
            JOINT rightLowerArm
            {
              OFFSET -2.440617418222133 0 0
              CHANNELS 3 Yrotation Xrotation Zrotation
              JOINT rightHand
              {
                OFFSET -2.3832181162662343 0 0
                CHANNELS 3 Yrotation Xrotation Zrotation
                JOINT rightIndexProximal
                {
                  OFFSET -0.7310168852843362 0.08192787643494381 0.20404785424302163
                  CHANNELS 3 Yrotation Xrotation Zrotation
                  JOINT rightIndexIntermediate
                  {
                    OFFSET -0.3688846010723953 -0.01066191355993129 -0.014226020535245201
                    CHANNELS 3 Yrotation Xrotation Zrotation
                    JOINT rightIndexDistal
                    {
                      OFFSET -0.22711216276130997 -0.007898902439410271 -0.007580718044857868
                      CHANNELS 3 Yrotation Xrotation Zrotation
                      End Site
                      {
                        OFFSET -0.22711216276130997 -0.007898902439410271 -0.007580718044857868
                      }
                    }
                  }
                }
                JOINT rightLittleProximal
                {
                  OFFSET -0.6782685897119165 0.08192501740206293 -0.3238766118101876
                  CHANNELS 3 Yrotation Xrotation Zrotation
                  JOINT rightLittleIntermediate
                  {
                    OFFSET -0.34904682243945895 -2.664019085329983e-7 3.792712677253007e-8
                    CHANNELS 3 Yrotation Xrotation Zrotation
                    JOINT rightLittleDistal
                    {
                      OFFSET -0.20110609302945537 0.0031260842677420797 0.0038661724369087186
                      CHANNELS 3 Yrotation Xrotation Zrotation
                      End Site
                      {
                        OFFSET -0.20110609302945537 0.0031260842677420797 0.0038661724369087186
                      }
                    }
                  }
                }
                JOINT rightMiddleProximal
                {
                  OFFSET -0.7368168209984411 0.08192485183145659 0.022723294831187846
                  CHANNELS 3 Yrotation Xrotation Zrotation
                  JOINT rightMiddleIntermediate
                  {
                    OFFSET -0.4113687575187084 -9.03141548214137e-8 4.759541079313312e-8
                    CHANNELS 3 Yrotation Xrotation Zrotation
                    JOINT rightMiddleDistal
                    {
                      OFFSET -0.2537822083525749 -9.554208624251714e-8 -1.6364827826187422e-9
                      CHANNELS 3 Yrotation Xrotation Zrotation
                      End Site
                      {
                        OFFSET -0.2537822083525749 -9.554208624251714e-8 -1.6364827826187422e-9
                      }
                    }
                  }
                }
                JOINT rightRingProximal
                {
                  OFFSET -0.7284243957721679 0.08192492753028224 -0.15084062217729294
                  CHANNELS 3 Yrotation Xrotation Zrotation
                  JOINT rightRingIntermediate
                  {
                    OFFSET -0.381595106800805 -2.5662436442530634e-7 2.929475539925619e-8
                    CHANNELS 3 Yrotation Xrotation Zrotation
                    JOINT rightRingDistal
                    {
                      OFFSET -0.22014544912608125 -0.002738002524970362 -0.0050375115645966
                      CHANNELS 3 Yrotation Xrotation Zrotation
                      End Site
                      {
                        OFFSET -0.22014544912608125 -0.002738002524970362 -0.0050375115645966
                      }
                    }
                  }
                }
                JOINT rightThumbProximal
                {
                  OFFSET -0.10842026863657162 -0.16573778435706465 -0.07779917642461898
                  CHANNELS 3 Yrotation Xrotation Zrotation
                  JOINT rightThumbIntermediate
                  {
                    OFFSET -0.40720600760521597 -0.017512298079938038 0.3185267362029824
                    CHANNELS 3 Yrotation Xrotation Zrotation
                    JOINT rightThumbDistal
                    {
                      OFFSET -0.2341289751103648 -0.018594162598156494 0.21466399510514025
                      CHANNELS 3 Yrotation Xrotation Zrotation
                      End Site
                      {
                        OFFSET -0.2341289751103648 -0.018594162598156494 0.21466399510514025
                      }
                    }
                  }
                }
              }
            }
          }
        }
      }
    }
  }
  JOINT leftUpperLeg
  {
    OFFSET -0.8565189721517369 0.4427277044191169 0
    CHANNELS 3 Yrotation Xrotation Zrotation
    JOINT leftLowerLeg
    {
      OFFSET 0 -3.918486704769693 0
      CHANNELS 3 Yrotation Xrotation Zrotation
      JOINT leftFoot
      {
        OFFSET 6.174701361744139e-7 -0.055233446196002234 4.612027801972084
        CHANNELS 3 Yrotation Xrotation Zrotation
        JOINT leftToes
        {
          OFFSET -3.4372540951010944e-7 -0.705284859504459 1.2256624571888697
          CHANNELS 3 Yrotation Xrotation Zrotation
          End Site
          {
            OFFSET -3.4372540951010944e-7 -0.705284859504459 1.2256624571888697
          }
        }
      }
    }
  }
  JOINT rightUpperLeg
  {
    OFFSET 0.8565189732197466 0.44272769569168136 0
    CHANNELS 3 Yrotation Xrotation Zrotation
    JOINT rightLowerLeg
    {
      OFFSET 0 -3.918486692649319 0
      CHANNELS 3 Yrotation Xrotation Zrotation
      JOINT rightFoot
      {
        OFFSET 6.995136552362391e-7 -0.05523244834012664 4.612028499942008
        CHANNELS 3 Yrotation Xrotation Zrotation
        JOINT rightToes
        {
          OFFSET -4.2566694985479714e-7 -0.7052846587611067 1.22566236096697
          CHANNELS 3 Yrotation Xrotation Zrotation
          End Site
          {
            OFFSET -4.2566694985479714e-7 -0.7052846587611067 1.22566236096697
          }
        }
      }
    }
  }
}
MOTION
Frames: 4
Frame Time: 0.03333333333333333
-0.09194181859493256 -0.712324859023088 -0.028762690722942352 -43.20798237089686 -4.245039106335463 0.47385081878148916 4.648559004532713 5.8027750575499955 -0.6540778659465901 18.70314822896694 23.452960783098153 -0.6983724943177692 0 0 0 -1.273743013428365 -4.3017730031016725 0.3182917199957833 20.54211816905795 -5.8294270493764095 -2.8325053183987694 0 0 0 0 0 0 -0.7761250046397463 1.388118809259091 -6.207242446038348 2.7027581512610217 -14.739854747627723 -57.21776324400318 -48.32007337148492 1.221656849126095 1.6002456652781536 -0.2884758502492183 16.480312305814255 18.988376480882707 -6.815538602734561 -2.348496883212737 -3.433356452240482 0.47396585405050357 0.2095600891545874 -16.426622116207522 1.8275090622015082e-7 -0.00000589872490333462 -0.000004121197672730232 17.304968895073223 5.986104940711924 -33.713997725714854 -6.539463920150827 -0.9460010220275202 -39.186633865826984 4.171116073730225e-11 5.950788745874541e-26 -1.634838641478621e-13 9.095636639914005 2.7959871264433085 -14.30579347412358 -1.8764659964185788 -0.5463408636414937 -21.838705602452325 1.139979627027678e-10 1.2722218725854067e-14 -1.43444452663829e-12 13.961939465015316 4.054741937680381 -30.762827475060703 -3.152734981344713 -0.6661831566554562 -31.93921248773164 -0.0000042692549867072275 0.000010183200956081008 -0.0000011892422696123962 2.97633028814301 10.313463079480382 -4.944363812976663 0.04422703277701291 -0.27042001263683424 0.8016645575260327 0.000004587613752548001 -0.000006320224019496644 -0.000012837849648742392 9.568036144441345 1.3942468683810314 8.224854345071948 -24.044716259615175 1.3079589683313428 53.48561503668335 41.3072866243415 -9.728018864770402 1.33680128992567 12.842123788327292 4.986909019235031 12.659067577435936 -1.28843789489357 -1.303153750052739 4.560936901262714 -0.7379242897504463 0.36861798066449797 16.95161867455731 3.933694872703174e-10 3.1805546814635168e-15 -4.874754472204794e-12 -9.216394608652928 4.085691600146833 23.809232174115824 8.473261434378077 -1.9844732122234825 40.738440960322194 1.6628260911929426e-9 -3.1805543023118527e-15 -2.179830267765673e-11 -2.7707549198495194 -0.7360765971471562 12.800526277422735 2.279795816529451 -0.75639573215759 30.533565902274443 1.215836204053751e-9 -3.180554491887685e-15 -1.6036856771618462e-11 -6.74175027842869 2.7432008879758185 21.528347546120393 4.1992588898061785 -1.2059910696031468 37.30672707078512 -4.3803240153668535e-10 2.0219334966109398e-23 5.2894833502657416e-12 -5.8850724355669675 -7.487528721972802 0.7061458177960883 -18.05691035174352 10.20525460502015 -5.20420822425364 0.0000033205163896653747 0.000011007848253003898 -0.000012232382771583558 7.084039100689392 -25.590946244764456 10.314682399969351 -16.845630756343972 32.68548245192331 -9.306609811989345 0.6188861821991125 -5.4809802479578416 -7.350100322699624 -3.208996718627359 -2.314355027956472 0.9742001650583709 -14.026000713214753 -5.26952461636071 -13.357909189521346 -10.897660708715927 32.761757915577306 -6.2534170355365015 -3.809243264082968 -20.210999116223796 17.560895061968512 -0.35246786839889893 -1.7849382662585784 0.3563843939286965
-0.09508967399597168 -0.7297894967794356 -0.0011013337643817067 -43.355313285927856 -4.302669430037789 0.686287377738926 4.530622689354849 5.795274692221154 -0.694165507298896 18.197595485058205 23.40859631955594 -0.7687755214458081 0 0 0 -1.1056507391952444 -4.113331952936224 0.23908510733803848 20.731355024220804 -5.865877775424843 -3.028831470491971 0 0 0 0 0 0 -0.9862191517377846 1.4215112892555337 -6.097418962139461 3.039152425306293 -14.635965484528052 -56.90799222231828 -48.03146402140339 1.092076340925748 1.615739883593969 -0.4774119857728276 16.38665566239771 18.920261475302745 -6.806999240420313 -2.3471047038571196 -3.354997220198551 0.5013495253169689 0.21925461005513114 -16.216906315920212 1.8275090622015082e-7 -0.00000589872490333462 -0.000004121197672730232 17.235087723850867 5.920092895325775 -33.54222970074264 -6.527024812677486 -0.9393131482538633 -38.853483764681606 4.171116073730225e-11 5.950788745874541e-26 -1.634838641478621e-13 8.977431103518438 2.7356850672921973 -14.240745415935598 -1.8444269255938428 -0.533904937810018 -21.561873461089018 1.139979627027678e-10 1.2722218725854067e-14 -1.43444452663829e-12 13.918178117853122 3.9833432720403334 -30.533023794840492 -3.138780117650241 -0.6564462868570817 -31.715633556063974 -0.0000042692549867072275 0.000010183200956081008 -0.0000011892422696123962 2.711513688005715 10.092716561315795 -5.021650613524243 0.04422703277701291 -0.27042001263683424 0.8016645575260327 0.000004587613752548001 -0.000006320224019496644 -0.000012837849648742392 9.831807085039763 1.4014410918001892 8.234039693566295 -23.57246919070255 0.5236360581314257 52.84977651031535 41.01606178593055 -9.436610020200572 1.3484550687828039 12.633046934231764 5.31030120023114 12.597569989672325 -1.2404755871996886 -1.310967598595671 5.060501354275771 -0.7125595466442474 0.3601221474300763 17.176762072834123 3.933694872703174e-10 3.1805546814635168e-15 -4.874754472204794e-12 -9.174942185807089 4.064674476547774 24.20736734692058 8.473252139804185 -1.9844644557919429 40.738416864270135 1.6628260911929426e-9 -3.1805543023118527e-15 -2.179830267765673e-11 -2.7331468825532137 -0.7446406617889642 13.195986846844983 2.27978771139346 -0.7564071523752793 30.53356884405993 1.215836204053751e-9 -3.180554491887685e-15 -1.6036856771618462e-11 -6.702079981866053 2.7262138583447255 21.92573988242482 4.199265703168338 -1.2060155142886673 37.306741432569005 -4.3803240153668535e-10 2.0219334966109398e-23 5.2894833502657416e-12 -5.992894956756173 -7.5794445190978665 0.649181411682136 -18.0568993789037 10.205265882494572 -5.204200331742616 0.0000033205163896653747 0.000011007848253003898 -0.000012232382771583558 7.043713923626256 -25.794457633165077 10.35292962378209 -16.721195182119878 32.847850268402205 -9.268585805238432 0.603941834097901 -5.356847268436103 -7.611710562776726 -3.208957901175157 -2.3143704084279 0.974201232992259 -14.036540012272166 -6.094291727346618 -13.419828332330585 -10.63593772241014 34.061853426982495 -6.291616798894266 -3.857453709908021 -20.785295859728034 17.33089024862522 -0.3524602609299132 -1.784928656642334 0.35637086064755075
-0.10065773874521255 -0.7651717675924239 0.05390453338623047 -43.842865704908235 -4.459373477550232 1.1010648237896203 4.35506295676565 5.810992963686843 -0.791783731687004 17.436244158244776 23.434172134867744 -0.8404054605893541 0 0 0 -0.7231795979905544 -3.8028889790310387 0.12103843538874845 21.333007758418113 -6.06963941882681 -3.636159889502811 0 0 0 0 0 0 -1.3729476765709276 1.4824682118189139 -5.888075724033912 3.601783040626024 -14.48773041407382 -56.28241624811912 -47.54969058269874 0.9414415724558464 1.6466552436304027 -0.7425951272645394 16.363061683458852 18.825531640992214 -6.784832598168346 -2.3429221926902715 -3.1877997450588813 0.559678850757317 0.23988702969934514 -15.770111139270604 1.8275090622015082e-7 -0.00000589872490333462 -0.000004121197672730232 17.09172886786048 5.785505916134801 -33.181204732190494 -6.501353120646907 -0.9259116089870442 -38.167021726998975 4.171116073730225e-11 5.950788745874541e-26 -1.634838641478621e-13 8.746249464387327 2.617669143150272 -14.10825161255044 -1.775744644861466 -0.5077028225920034 -20.970111533011874 1.139979627027678e-10 1.2722218725854067e-14 -1.43444452663829e-12 13.836180894977813 3.84502174189699 -30.059756304508916 -3.1092353883046044 -0.6361031951872725 -31.243338190989874 -0.0000042692549867072275 0.000010183200956081008 -0.0000011892422696123962 2.1440081059782696 9.619610474239337 -5.186854269739943 0.04422703277701291 -0.27042001263683424 0.8016645575260327 0.000004587613752548001 -0.000006320224019496644 -0.000012837849648742392 10.178373434547654 1.4492626252198273 8.291011249894876 -22.429369707190368 -1.24612932881114 51.53205348508703 40.21626484732502 -8.824913794243827 1.4612345527585149 12.343528363483376 6.0938890318335766 12.15223486240588 -1.134860848012395 -1.3278371957483162 6.165174007484476 -0.6570294873021978 0.3416537965989487 17.66855604725374 3.933694872703174e-10 3.1805546814635168e-15 -4.874754472204794e-12 -9.082784564476748 4.017112889757133 25.092955220518444 8.473252984765466 -1.9844757750815025 40.73845800711224 1.6628260911929426e-9 -3.1805543023118527e-15 -2.179830267765673e-11 -2.650019789034543 -0.7643829010243929 14.07586373076329 2.2797870715142983 -0.7564042172725992 30.53358408153407 1.215836204053751e-9 -3.180554491887685e-15 -1.6036856771618462e-11 -6.61456193989967 2.6873444939385345 22.809951500815817 4.199272516530379 -1.2060071881512164 37.3067366453076 -4.3803240153668535e-10 2.0219334966109398e-23 5.2894833502657416e-12 -6.249196135774903 -7.762487354025298 0.5256666899471475 -18.070993807812307 10.213623468450857 -5.207608000059365 0.0000033205163896653747 0.000011007848253003898 -0.000012232382771583558 6.960915449185308 -26.118025235275564 10.49526825035704 -16.28823805808866 33.21266328554371 -9.086784779200332 0.5814582341937248 -5.144197680421577 -8.186361260437671 -3.2089966966718473 -2.3143635726628 0.9742021941327581 -14.052025474312726 -7.70218686190638 -13.566178125272776 -9.870220299201765 36.57737896885715 -6.163454295868171 -3.909853872287474 -21.873734699885283 16.771276622845864 -0.3524414424539477 -1.7849318598477433 0.3563809505494738
-0.10557882487773895 -0.8028876794576583 0.11240354180335999 -44.51963843643743 -4.681418361452413 1.4566815780441944 4.221545504702395 5.8421433168705725 -0.8748631968536837 16.85698045593228 23.523175273543785 -0.8560665333395032 0 0 0 -0.3451681341391174 -3.384718115113813 0.012359840017505968 21.95775074230602 -6.294567564992564 -4.282403144166836 0 0 0 0 0 0 -1.78876861192568 1.5501211298861604 -5.6551220489381215 4.1885422935574335 -14.331640545910282 -55.70114668095406 -47.02582478890707 0.8244352701378725 1.6987741189686518 -0.9433657004953947 16.41987930607255 18.805990378723116 -6.751634821019815 -2.3355441358595037 -3.0083744036161364 0.6223483850599866 0.262025192632319 -15.28973620816211 1.8275090622015082e-7 -0.00000589872490333462 -0.000004121197672730232 16.943718517872142 5.648204692026232 -32.7986804977075 -6.474566376905985 -0.9124267601576936 -37.45559637645319 4.171116073730225e-11 5.950788745874541e-26 -1.634838641478621e-13 8.521526097266579 2.5029457353261213 -13.972818535607098 -1.7013401984602794 -0.48007757613925106 -20.331472401580527 1.139979627027678e-10 1.2722218725854067e-14 -1.43444452663829e-12 13.760862107575848 3.7123390155339266 -29.569715742131965 -3.077657000644117 -0.6148629225888231 -30.740075673364075 -0.0000042692549867072275 0.000010183200956081008 -0.0000011892422696123962 1.5305121764724863 9.107805142994314 -5.364526161995258 0.04422703277701291 -0.27042001263683424 0.8016645575260327 0.000004587613752548001 -0.000006320224019496644 -0.000012837849648742392 10.708620109919595 1.4819332503578226 8.449094808160135 -21.35294856893354 -3.1433789058831785 50.18320115569014 39.394291107378805 -8.284268113649622 1.4573514002387749 11.960984737383411 6.823463994463163 11.731225751346233 -1.0186600508538932 -1.345791819750287 7.384734937418729 -0.596358000221158 0.32155621523612765 18.205085809650534 3.933694872703174e-10 3.1805546814635168e-15 -4.874754472204794e-12 -8.980925656433289 3.963003175221728 26.076117426455703 8.473254674688018 -1.9844806872260528 40.738431321901196 1.6628260911929426e-9 -3.1805543023118527e-15 -2.179830267765673e-11 -2.558565726824196 -0.7872907343637763 15.052676626352602 2.2797872848073526 -0.7563807364512307 30.533573521011835 1.215836204053751e-9 -3.180554491887685e-15 -1.6036856771618462e-11 -6.518770925820825 2.642760663755005 23.791432743483597 4.199268684014246 -1.2060196773574021 37.306724353809074 -4.3803240153668535e-10 2.0219334966109398e-23 5.2894833502657416e-12 -6.550083885868695 -7.944783232448366 0.39168591198750924 -18.096808745260677 10.228945123255754 -5.213834852971447 0.0000033205163896653747 0.000011007848253003898 -0.000012232382771583558 6.85462226121247 -26.384109912856726 10.761780141343571 -15.72630844949293 33.73821777861168 -8.857379729966134 0.5738964460224973 -5.046462898976 -8.784270318636525 -3.208991599842622 -2.3143635726628 0.9742040096203657 -14.079992921308202 -9.207112242919784 -13.708145559031834 -8.819443658962523 38.994664804530814 -5.770149552547077 -3.912688378252439 -22.91023040120533 16.094234114477306 -0.3524015899932478 -1.784935276600186 0.35638041669222975
